<?xml version="1.0" encoding="UTF-8"?>
<svg version="1.1" xmlns="http://www.w3.org/2000/svg" width="225" height="225">
<path d="M0 0 C74.25 0 148.5 0 225 0 C225 74.25 225 148.5 225 225 C150.75 225 76.5 225 0 225 C0 150.75 0 76.5 0 0 Z " fill="#7289DA" transform="translate(0,0)"/>
<path d="M0 0 C0 0.66 0 1.32 0 2 C-0.93199219 2.27972656 -1.86398438 2.55945312 -2.82421875 2.84765625 C-11.86008414 5.65624582 -19.82643568 9.21715545 -28 14 C-27.09121094 13.67386719 -26.18242188 13.34773438 -25.24609375 13.01171875 C-16.25294845 9.85783911 -7.41772938 7.58389085 2 6 C3.05832031 5.814375 4.11664063 5.62875 5.20703125 5.4375 C25.86120714 3.05514398 47.41086993 4.95792222 67 12 C59.24551548 7.80114317 51.33114717 4.82106568 43 2 C43 1.34 43 0.68 43 0 C56.08161485 -1.26596273 70.49051999 4.2997417 81.30078125 11.515625 C86.54116213 16.33889886 88.70372427 22.4469022 91 29 C91.29600098 29.80727539 91.59200195 30.61455078 91.89697266 31.44628906 C98.29203307 48.96508119 102.41584247 66.3794535 103.84179688 84.98242188 C103.97761344 86.7145023 104.14934831 88.44370034 104.328125 90.171875 C104.61723325 94.50849882 104.32622515 97.20032516 101.625 100.6875 C93.35633299 108.93671132 82.60463328 115.15666475 71 117 C70.12085938 117.1546875 69.24171875 117.309375 68.3359375 117.46875 C65.24322791 117.775465 63.00806257 117.81840197 60 117 C56.71533586 114.04121592 54.33133804 110.74082895 52 107 C54.09654717 104.90345283 55.54233289 104.23938 58.25 103.125 C64.63901971 100.35472105 69.74866436 96.50114483 75 92 C72.80164156 93.08369782 70.63186521 94.19945383 68.4765625 95.3671875 C45.75953362 107.37920551 16.5018859 109.8821587 -8.17919922 102.33349609 C-15.52352892 99.89411191 -22.34128137 96.96270787 -29 93 C-22.84686457 99.28326216 -16.06559903 102.64343211 -8 106 C-8.39832031 106.45890625 -8.79664063 106.9178125 -9.20703125 107.390625 C-9.73683594 108.00421875 -10.26664063 108.6178125 -10.8125 109.25 C-11.33457031 109.85328125 -11.85664062 110.4565625 -12.39453125 111.078125 C-14.05744626 112.97592773 -14.05744626 112.97592773 -15.359375 115.203125 C-17 117 -17 117 -19.49609375 117.53125 C-33.95106625 117.37767791 -46.440747 111.80502065 -57 102 C-57.78375 101.278125 -58.5675 100.55625 -59.375 99.8125 C-66.11104751 88.15395624 -58.44964731 63.47717726 -55.3125 51.25 C-46.3916519 17.97649143 -46.3916519 17.97649143 -37.3359375 10.92578125 C-25.00577349 4.2076312 -14.16794051 -0.52258797 0 0 Z " fill="#FDFDFE" transform="translate(91,55)"/>
<path d="M0 0 C3.79021764 2.16468905 6.38987037 4.9307633 8 9 C8.55301696 13.81914775 8.64176869 18.41246691 6.8125 22.9375 C2.91959724 27.36735487 -0.36859468 29.75175421 -6.3125 30.3125 C-11.91072543 29.83807412 -14.63539173 27.4723405 -18.375 23.4375 C-20.6842072 18.55263861 -20.88627766 14.30995922 -20 9 C-18.26111365 4.90806744 -15.81016954 2.58921421 -12.25 0 C-7.87882599 -1.34497662 -4.38733933 -1.29501072 0 0 Z " fill="#7289DA" transform="translate(143,108)"/>
<path d="M0 0 C3.79021764 2.16468905 6.38987037 4.9307633 8 9 C8.55301696 13.81914775 8.64176869 18.41246691 6.8125 22.9375 C2.91959724 27.36735487 -0.36859468 29.75175421 -6.3125 30.3125 C-11.49723861 29.87311537 -14.41601755 27.80246279 -17.8125 23.9375 C-20.65930935 19.2927058 -20.70451169 14.27583186 -20 9 C-18.25822558 4.95337753 -15.77920589 2.56669519 -12.25 0 C-7.87882599 -1.34497662 -4.38733933 -1.29501072 0 0 Z " fill="#7289DA" transform="translate(92,108)"/>
<path d="M0 0 C0.33 0 0.66 0 1 0 C1 9.9 1 19.8 1 30 C-8.9 30 -18.8 30 -29 30 C-29 29.67 -29 29.34 -29 29 C-27.72125 28.79375 -26.4425 28.5875 -25.125 28.375 C-16.71126546 26.46700351 -10.0111485 22.17702108 -5.1796875 15.01171875 C-2.35175591 10.18925263 -0.68299269 5.60054002 0 0 Z " fill="#FBFBFD" transform="translate(224,195)"/>
<path d="M0 0 C0.33 0 0.66 0 1 0 C1.20625 1.27875 1.4125 2.5575 1.625 3.875 C3.50029312 12.14452174 7.73392066 18.95317844 14.765625 23.75 C18.67386959 25.93643054 22.77777875 27.52914424 27 29 C27 29.33 27 29.66 27 30 C18.09 30 9.18 30 0 30 C0 20.1 0 10.2 0 0 Z " fill="#FCFCFE" transform="translate(0,195)"/>
<path d="M0 0 C9.9 0 19.8 0 30 0 C30 8.91 30 17.82 30 27 C28.26763052 24.40144578 26.96469732 21.93239121 25.625 19.125 C21.58951175 11.1005421 17.11942122 6.91197733 9 3 C5.97642795 2.06042165 3.13745034 1.50604038 0 1 C0 0.67 0 0.34 0 0 Z " fill="#FCFCFE" transform="translate(195,0)"/>
<path d="M0 0 C8.91 0 17.82 0 27 0 C24.40144578 1.73236948 21.93239121 3.03530268 19.125 4.375 C9.9292821 8.99951321 5.2809405 14.9866114 1.625 24.625 C1.41875 25.40875 1.2125 26.1925 1 27 C0.67 27 0.34 27 0 27 C0 18.09 0 9.18 0 0 Z " fill="#FDFDFE" transform="translate(0,0)"/>
<path d="M0 0 C0 0.99 0 1.98 0 3 C-2.046875 4.97265625 -2.046875 4.97265625 -4.75 7.0625 C-5.63171875 7.75472656 -6.5134375 8.44695312 -7.421875 9.16015625 C-9.57652425 10.6977923 -11.59562201 11.91578282 -14 13 C-14.66 12.34 -15.32 11.68 -16 11 C-12.00255759 7.53554991 -7.65897385 4.9279507 -3.109375 2.26953125 C-1.08819514 1.1686003 -1.08819514 1.1686003 0 0 Z " fill="#7F93DD" transform="translate(166,145)"/>
</svg>
