<?xml version="1.0" encoding="UTF-8"?>
<svg version="1.1" xmlns="http://www.w3.org/2000/svg" width="225" height="225">
<path d="M0 0 C74.25 0 148.5 0 225 0 C225 74.25 225 148.5 225 225 C150.75 225 76.5 225 0 225 C0 150.75 0 76.5 0 0 Z " fill="#42E55F" transform="translate(0,0)"/>
<path d="M0 0 C5.61 0 11.22 0 17 0 C17.33 9.24 17.66 18.48 18 28 C24.27 21.73 30.54 15.46 37 9 C41.73083325 13.05499992 45.26704243 16.24896309 49 21 C48.50072998 21.46897705 48.00145996 21.9379541 47.48706055 22.42114258 C45.220076 24.55110144 42.95378111 26.6817927 40.6875 28.8125 C39.90181641 29.55048828 39.11613281 30.28847656 38.30664062 31.04882812 C37.1706543 32.11713867 37.1706543 32.11713867 36.01171875 33.20703125 C35.31522217 33.8616333 34.61872559 34.51623535 33.90112305 35.19067383 C32.2431085 36.76863014 30.61848052 38.38151948 29 40 C42.86 40.495 42.86 40.495 57 41 C57 46.28 57 51.56 57 57 C47.76 57.33 38.52 57.66 29 58 C36.51731874 65.52236242 36.51731874 65.52236242 44.37109375 72.58984375 C45.62607573 73.67629098 46.82625655 74.82625655 48 76 C47.85677318 78.96417253 47.00676414 79.99299291 44.93359375 82.140625 C44.10988281 82.83671875 43.28617187 83.5328125 42.4375 84.25 C41.61121094 84.95640625 40.78492188 85.6628125 39.93359375 86.390625 C39.29550781 86.92171875 38.65742188 87.4528125 38 88 C33.89891114 86.37843976 31.16851833 83.4232297 28.140625 80.3359375 C27.59138367 79.78386627 27.04214233 79.23179504 26.47625732 78.66299438 C24.72940707 76.90498185 22.98965399 75.1401311 21.25 73.375 C20.06426409 72.1792292 18.8780712 70.98391135 17.69140625 69.7890625 C14.78894915 66.86459747 11.8928359 63.93398126 9 61 C4.69391029 64.52208441 0.73937916 68.22182841 -3.13671875 72.21484375 C-4.04357422 73.14748047 -4.95042969 74.08011719 -5.88476562 75.04101562 C-7.29951572 76.49931934 -8.70990316 77.9610408 -10.1105957 79.43286133 C-11.48274221 80.87130654 -12.87199281 82.29337532 -14.26171875 83.71484375 C-15.07600342 84.56167725 -15.89028809 85.40851074 -16.72924805 86.28100586 C-19 88 -19 88 -21.16015625 87.87451172 C-23.66130719 86.68566848 -25.34237225 85.12881418 -27.3125 83.1875 C-28.03050781 82.50042969 -28.74851562 81.81335938 -29.48828125 81.10546875 C-31 79 -31 79 -30.921875 76.9453125 C-29.86423808 74.71351934 -28.72356436 73.39219469 -26.9375 71.6875 C-25.99970703 70.78837891 -25.99970703 70.78837891 -25.04296875 69.87109375 C-22.33540075 67.3913135 -19.58605921 64.96566668 -16.796875 62.578125 C-15.1361337 61.1195609 -13.56292529 59.56292529 -12 58 C-25.86 57.505 -25.86 57.505 -40 57 C-40 51.72 -40 46.44 -40 41 C-30.76 40.67 -21.52 40.34 -12 40 C-21.70001612 30.17893712 -21.70001612 30.17893712 -32 21 C-31.13192399 19.93183555 -30.25505217 18.87081915 -29.375 17.8125 C-28.88773438 17.22082031 -28.40046875 16.62914063 -27.8984375 16.01953125 C-25.48592888 13.45313834 -22.70590288 11.25491907 -20 9 C-13.73 15.27 -7.46 21.54 -1 28 C-0.67 18.76 -0.34 9.52 0 0 Z " fill="#000100" transform="translate(104,57)"/>
<path d="M0 0 C5.61 0 11.22 0 17 0 C17 12.54 17 25.08 17 38 C11.39 38 5.78 38 0 38 C0 25.46 0 12.92 0 0 Z " fill="#000000" transform="translate(104,138)"/>
</svg>
