<?xml version="1.0" encoding="UTF-8"?>
<svg version="1.1" xmlns="http://www.w3.org/2000/svg" width="331" height="330">
<path d="M0 0 C1.86903794 -0.00571247 3.7380724 -0.0126801 5.60710144 -0.02079773 C10.65274249 -0.03864912 15.69820886 -0.0375757 20.74387193 -0.03185534 C24.97061608 -0.02875129 29.19732728 -0.03486954 33.42406672 -0.04089409 C43.40383313 -0.05491192 53.38351389 -0.05340141 63.36328125 -0.04199219 C73.62549249 -0.03051861 83.88744215 -0.04458022 94.14961892 -0.07138866 C102.99080509 -0.09361193 111.83190955 -0.100168 120.67312163 -0.09431225 C125.94012736 -0.0909567 131.20696554 -0.09326368 136.47394753 -0.11056328 C141.43095161 -0.12613594 146.38757116 -0.12196343 151.34456062 -0.10325813 C153.15239646 -0.09960038 154.96026145 -0.10259742 156.76807022 -0.11314392 C177.52727247 -0.22490142 195.3370018 4.50196628 210.52416992 19.51342773 C225.94213876 35.85912536 229.71502916 53.45093991 229.65478516 75.15332031 C229.66049762 77.02235825 229.66746525 78.89139271 229.67558289 80.76042175 C229.69343427 85.8060628 229.69236086 90.85152917 229.6866405 95.89719224 C229.68353645 100.1239364 229.6896547 104.35064759 229.69567925 108.57738703 C229.70969707 118.55715344 229.70818656 128.5368342 229.69677734 138.51660156 C229.68530376 148.7788128 229.69936538 159.04076246 229.72617382 169.30293924 C229.74839709 178.1441254 229.75495316 186.98522986 229.74909741 195.82644194 C229.74574186 201.09344767 229.74804883 206.36028586 229.76534843 211.62726784 C229.7809211 216.58427192 229.77674858 221.54089147 229.75804329 226.49788094 C229.75438554 228.30571677 229.75738257 230.11358176 229.76792908 231.92139053 C229.87968658 252.68059278 225.15281887 270.49032211 210.14135742 285.67749023 C193.7956598 301.09545907 176.20384525 304.86834947 154.50146484 304.80810547 C152.6324269 304.81381794 150.76339245 304.82078557 148.8943634 304.8289032 C143.84872235 304.84675459 138.80325598 304.84568117 133.75759292 304.83996081 C129.53084876 304.83685676 125.30413757 304.84297501 121.07739812 304.84899956 C111.09763171 304.86301739 101.11795095 304.86150688 91.13818359 304.85009766 C80.87597235 304.83862408 70.6140227 304.85268569 60.35184592 304.87949413 C51.51065976 304.9017174 42.6695553 304.90827347 33.82834321 304.90241772 C28.56133749 304.89906217 23.2944993 304.90136914 18.02751732 304.91866875 C13.07051323 304.93424141 8.11389368 304.9300689 3.15690422 304.9113636 C1.34906839 304.90770585 -0.4587966 304.91070288 -2.26660538 304.92124939 C-23.02580763 305.03300689 -40.83553695 300.30613919 -56.02270508 285.29467773 C-71.44067392 268.94898011 -75.21356431 251.35716556 -75.15332031 229.65478516 C-75.15903278 227.78574722 -75.16600041 225.91671276 -75.17411804 224.04768372 C-75.19196943 219.00204267 -75.19089601 213.9565763 -75.18517566 208.91091323 C-75.18207161 204.68416907 -75.18818986 200.45745788 -75.1942144 196.23071843 C-75.20823223 186.25095203 -75.20672172 176.27127127 -75.1953125 166.29150391 C-75.18383892 156.02929267 -75.19790053 145.76734301 -75.22470897 135.50516623 C-75.24693224 126.66398007 -75.25348832 117.82287561 -75.24763256 108.98166353 C-75.24427702 103.7146578 -75.24658399 98.44781961 -75.26388359 93.18083763 C-75.27945625 88.22383354 -75.27528374 83.267214 -75.25657845 78.31022453 C-75.2529207 76.5023887 -75.25591773 74.69452371 -75.26646423 72.88671494 C-75.37387977 52.93404086 -71.33531349 35.49493646 -56.97583008 20.60717773 C-56.24106445 19.88014648 -55.50629883 19.15311523 -54.74926758 18.40405273 C-53.86368164 17.46819336 -53.86368164 17.46819336 -52.96020508 16.51342773 C-48.81258122 12.45716123 -44.11845415 9.78698421 -38.99926758 7.15405273 C-38.36819092 6.82453613 -37.73711426 6.49501953 -37.08691406 6.15551758 C-25.06722634 0.26247946 -13.08025235 -0.03630969 0 0 Z " fill="#8DD400" transform="translate(87.749267578125,12.595947265625)"/>
<path d="M0 0 C15.70170696 11.42648972 26.71238583 25.88360027 30.4371891 45.20957756 C31.06372942 49.29311081 31.11483902 53.29987367 31.08666992 57.42407227 C31.08856827 58.32125473 31.09046661 59.21843719 31.09242249 60.14280701 C31.0960895 63.0705576 31.08549078 65.99805322 31.07421875 68.92578125 C31.07302528 70.97175569 31.07257414 73.01773068 31.0728302 75.06370544 C31.07127278 79.3309985 31.06303499 83.59820677 31.04956055 87.86547852 C31.03247452 93.34681984 31.02874936 98.82806909 31.02950573 104.30943394 C31.02923466 108.52401108 31.02376515 112.73856793 31.01650429 116.95313835 C31.01331506 118.97584823 31.01134962 120.9985604 31.01061058 123.02127266 C31.00845519 125.83396511 30.99973133 128.6465574 30.98901367 131.45922852 C30.98946686 132.30019073 30.98992004 133.14115295 30.99038696 134.00759888 C30.95823368 139.74489132 30.95823368 139.74489132 29.84375 140.859375 C26.8983943 140.96047853 23.9769744 140.99906779 21.03125 140.9921875 C19.70516724 140.99362259 19.70516724 140.99362259 18.35229492 140.99508667 C16.47932871 140.99576851 14.60636014 140.99391393 12.73339844 140.98974609 C9.85606612 140.98439789 6.97888992 140.98969093 4.1015625 140.99609375 C2.28645799 140.99543297 0.47135357 140.99415181 -1.34375 140.9921875 C-2.21040283 140.99421173 -3.07705566 140.99623596 -3.9699707 140.99832153 C-10.04129991 140.97432509 -10.04129991 140.97432509 -11.15625 139.859375 C-11.26010246 137.26516338 -11.29986483 134.69671056 -11.2980957 132.10180664 C-11.30157013 131.28867004 -11.30504456 130.47553345 -11.30862427 129.63775635 C-11.31599716 127.86439262 -11.32133433 126.09101956 -11.32491493 124.31764412 C-11.33206941 121.50452809 -11.34773181 118.69158763 -11.36625671 115.87852478 C-11.41874879 107.87729419 -11.4666316 99.87615461 -11.48217773 91.87475586 C-11.4923031 86.98452839 -11.52175203 82.09473492 -11.56349754 77.20467949 C-11.57575776 75.3457411 -11.58093796 73.48674122 -11.57869911 71.62776375 C-11.44054601 57.74826734 -11.44054601 57.74826734 -16.15625 44.859375 C-16.73375 43.8075 -17.31125 42.755625 -17.90625 41.671875 C-22.98640219 35.32168477 -29.11126529 29.84130272 -37.15625 27.859375 C-49.24071709 26.57125049 -58.8891752 28.52737748 -68.40625 36.1640625 C-74.15899891 41.73703801 -78.13537229 49.96885443 -78.54824829 57.9901886 C-78.57126116 59.47027211 -78.57867134 60.95065762 -78.57275391 62.4309082 C-78.58133926 63.24655746 -78.58992462 64.06220673 -78.59877014 64.90257263 C-78.62366344 67.5718572 -78.62819333 70.24076661 -78.6328125 72.91015625 C-78.64713531 74.77484762 -78.66289461 76.63952846 -78.68002319 78.50419617 C-78.72174052 83.39378781 -78.7468297 88.2833141 -78.76751709 93.17303467 C-78.8034353 101.01645376 -78.86430046 108.85971193 -78.92600632 116.70296288 C-78.94509296 119.44116044 -78.95682235 122.17931477 -78.96743774 124.91755676 C-78.9776468 126.58997696 -78.98800446 128.26239625 -78.99853516 129.93481445 C-78.99957748 130.6969223 -79.00061981 131.45903015 -79.00169373 132.24423218 C-79.02617269 135.38348458 -79.15588264 137.85827293 -80.15625 140.859375 C-85.83455078 140.88402205 -91.51282069 140.90220962 -97.19116211 140.91430664 C-99.12443585 140.91934756 -101.05770576 140.92618019 -102.9909668 140.93481445 C-105.76351872 140.94689065 -108.53602041 140.95260557 -111.30859375 140.95703125 C-112.61327858 140.96477318 -112.61327858 140.96477318 -113.94432068 140.97267151 C-116.01530814 140.97286685 -118.08619324 140.92145668 -120.15625 140.859375 C-122.10848989 138.90713511 -121.34068615 135.16156371 -121.36157227 132.49389648 C-121.37147186 131.72321838 -121.38137146 130.95254028 -121.39157104 130.1585083 C-121.42327701 127.59919353 -121.4479792 125.03986017 -121.47265625 122.48046875 C-121.49321794 120.71069341 -121.51421419 118.94092306 -121.53562927 117.17115784 C-121.59093109 112.5039168 -121.64030446 107.83663086 -121.68847656 103.16931152 C-121.73863253 98.41035954 -121.79434934 93.65147309 -121.84960938 88.89257812 C-121.95729008 79.54823302 -122.05871288 70.2038311 -122.15625 60.859375 C-123.07653488 60.65715584 -123.07653488 60.65715584 -124.01541138 60.45085144 C-124.82259613 60.27266373 -125.62978088 60.09447601 -126.46142578 59.91088867 C-127.66014816 59.64679451 -127.66014816 59.64679451 -128.88308716 59.37736511 C-143.5244768 56.0410027 -155.3684404 49.31579187 -163.65234375 36.5546875 C-169.4490889 26.06206275 -171.27469733 12.91012428 -171.34375 1.046875 C-171.35792969 -0.07332031 -171.37210938 -1.19351563 -171.38671875 -2.34765625 C-171.15625 -5.140625 -171.15625 -5.140625 -169.15625 -7.140625 C-166.23875865 -7.34060824 -163.41823071 -7.42037387 -160.5 -7.40625 C-159.64192749 -7.40816345 -158.78385498 -7.4100769 -157.89978027 -7.41204834 C-156.08406278 -7.41341044 -154.26833555 -7.40971228 -152.45263672 -7.40136719 C-149.6674215 -7.39066791 -146.88285132 -7.40126153 -144.09765625 -7.4140625 C-142.33593607 -7.41274091 -140.57421629 -7.41017853 -138.8125 -7.40625 C-137.97601929 -7.41029846 -137.13953857 -7.41434692 -136.27770996 -7.41851807 C-130.38616834 -7.37054334 -130.38616834 -7.37054334 -128.15625 -5.140625 C-127.95195345 -3.02177793 -127.84231262 -0.8934223 -127.78125 1.234375 C-127.37289895 8.07073483 -126.48745083 14.77503466 -123.15625 20.859375 C-120.5160399 23.00786812 -119.03039999 23.85803222 -115.61328125 23.86328125 C-112.29293614 22.50663786 -110.99177914 20.65175102 -108.84375 17.796875 C-98.15171943 4.23965977 -85.23605711 -5.9670732 -68.15625 -10.140625 C-67.53218262 -10.31287598 -66.90811523 -10.48512695 -66.26513672 -10.66259766 C-44.28709026 -16.2834918 -18.7581457 -12.72210872 0 0 Z " fill="#FEFEFE" transform="translate(222.15625,99.140625)"/>
</svg>
