<?xml version="1.0" encoding="UTF-8"?>
<svg version="1.1" xmlns="http://www.w3.org/2000/svg" width="225" height="225">
<path d="M0 0 C74.25 0 148.5 0 225 0 C225 74.25 225 148.5 225 225 C150.75 225 76.5 225 0 225 C0 150.75 0 76.5 0 0 Z " fill="#C71415" transform="translate(0,0)"/>
<path d="M0 0 C0.66 0 1.32 0 2 0 C2 0.66 2 1.32 2 2 C2.66 2 3.32 2 4 2 C5.01274894 3.11834207 5.96914734 4.2879096 6.89868164 5.47631836 C10.59972344 9.83038352 14.74744154 12.8491088 19.41560364 16.10374451 C37.62252804 29.02647907 58.91875764 45.38421627 62.9228735 68.5894022 C66.75952066 96.97894942 63.9190753 126.62870621 61 155 C47.56939455 155.30239631 34.13961023 155.53278972 20.70628262 155.67355824 C14.46710151 155.74115324 8.23026401 155.83269131 1.99243164 155.98071289 C-4.03785329 156.12289929 -10.06589772 156.19988447 -16.09773064 156.23340416 C-18.38833807 156.25726139 -20.67883498 156.30385151 -22.96847725 156.37449074 C-34.60278624 156.71886006 -43.75058346 156.91935883 -52.67553711 148.7097168 C-54.3470135 147.03720652 -55.95528284 145.33238177 -57.53339958 143.57175255 C-59.71033339 141.23873722 -62.11624849 139.34404258 -64.625 137.375 C-70.83263435 132.34709707 -76.91534157 127.1753454 -83 122 C-82.63648437 121.52691406 -82.27296875 121.05382812 -81.8984375 120.56640625 C-80.2453918 118.39201536 -78.61875605 116.20003663 -77 114 C-76.4740625 113.29101562 -75.948125 112.58203125 -75.40625 111.8515625 C-67.2555493 100.33245998 -65.051358 86.52580359 -62 73 C-58.4194946 73.80666009 -55.71096098 75.20462397 -52.5 77 C-43.82679357 81.35237268 -36.61176439 81.99659822 -27.25 79.4375 C-21.61991396 77.46462122 -17.32072209 75.0991466 -13 71 C-12.33484375 70.38640625 -11.6696875 69.7728125 -10.984375 69.140625 C0.52073743 57.45986199 4.35831826 42.12689837 4.375 26.1875 C4.41173828 24.35735352 4.41173828 24.35735352 4.44921875 22.49023438 C4.47153084 15.56976628 3.83844393 10.17041498 0.86181641 3.8840332 C0 2 0 2 0 0 Z " fill="#A21112" transform="translate(164,70)"/>
<path d="M0 0 C1.4533374 0.00241699 1.4533374 0.00241699 2.93603516 0.00488281 C18.9820517 0.27608309 32.75777934 5.26490541 44.5 16.375 C53.41310873 26.76513817 56.17468262 36.72665391 56 50.25 C56.02320313 52.03470703 56.02320313 52.03470703 56.046875 53.85546875 C55.97734746 69.75989328 49.77106861 83.65970664 38.84765625 95.1484375 C31.53587232 102.0830745 23.71430593 105.97314211 13.5546875 106.5390625 C5.4697382 106.26463863 -0.55955594 103.31558345 -7.5 99.375 C-8.82887432 98.69948889 -10.16040773 98.02899906 -11.5 97.375 C-11.68175781 98.79232422 -11.68175781 98.79232422 -11.8671875 100.23828125 C-14.29617828 117.08464413 -18.31757941 133.54908179 -31.5 145.375 C-32.16 145.375 -32.82 145.375 -33.5 145.375 C-36.87615335 125.11807992 -32.61109097 105.36044654 -26.60546875 86.02734375 C-23.0391383 75.19569645 -23.0391383 75.19569645 -24.5 64.375 C-25.34773652 53.33020419 -25.16672103 44.74005582 -18.18359375 35.6640625 C-15.29468903 32.6846223 -12.47588701 31.988434 -8.5 31.75 C-3.27361496 32.00225388 -1.01346696 33.59126635 2.5 37.375 C5.66731823 43.70963647 3.1861815 51.17186295 1.125 57.5 C0.68147723 58.81570884 0.23619168 60.13082489 -0.2109375 61.4453125 C-2.73294928 68.94199486 -4.71984328 76.42112391 -3.5 84.375 C-1.25564823 87.58121682 0.19375941 88.92812822 3.875 90.1875 C5.174375 90.2803125 5.174375 90.2803125 6.5 90.375 C7.593125 90.478125 8.68625 90.58125 9.8125 90.6875 C15.89887826 90.17170523 20.46845099 87.79959242 24.6875 83.375 C34.65348951 70.69348202 35.63507217 54.08048523 34.2578125 38.6640625 C33.08699943 31.85423139 29.65199725 26.04924535 24.38671875 21.58203125 C14.14716862 14.41965163 4.83429157 13.07648508 -7.5 15 C-17.95104924 17.43242719 -27.00846717 22.79232122 -33.5 31.375 C-37.92646448 38.74310227 -41.43298064 46.64414412 -40.5 55.375 C-39.42418755 59.29664085 -38.17373409 62.99703899 -36.7265625 66.796875 C-35.48032507 70.43239564 -34.91886067 73.5760311 -34.5 77.375 C-37.04745918 80.03321827 -39.30619745 80.72316203 -42.875 81 C-46.50336477 80.85105235 -48.31317987 80.21445036 -50.8125 77.5625 C-57.97451174 67.50775372 -58.78653733 56.32654532 -57.5 44.375 C-54.69455697 30.36354576 -46.03608083 17.49531053 -34.1875 9.5625 C-28.86681358 6.3745159 -23.42031197 4.18018183 -17.5 2.375 C-16.45328125 2.01792969 -15.4065625 1.66085938 -14.328125 1.29296875 C-9.49175826 0.13322775 -4.95727309 -0.00857511 0 0 Z " fill="#FDFAFA" transform="translate(113.5,45.625)"/>
<path d="M0 0 C9.70024822 -0.49131127 17.95457189 2.44293292 25.5703125 8.47265625 C32.30789322 14.90143119 34.75695696 22.72742355 35.37109375 31.80859375 C35.64895862 46.2283182 33.71568211 61.20858175 23.3671875 72.15234375 C19.13660971 75.9966514 15.55087517 78.1060405 9.7578125 78.53515625 C4.66129065 78.18367198 0.75971672 77.57833652 -3.3046875 74.34765625 C-8.76390004 63.64759968 -2.23689903 49.90575385 1.1328125 39.28515625 C1.4628125 38.29515625 1.7928125 37.30515625 2.1328125 36.28515625 C2.64286395 31.35187176 2.89310556 27.52696825 0.2578125 23.22265625 C-3.45221848 19.83998094 -6.44828368 19.87577881 -11.328125 19.953125 C-14.40626835 20.35565144 -16.44106994 21.39650377 -18.6171875 23.640625 C-25.00586298 32.04572617 -24.53787421 41.1588864 -23.8671875 51.28515625 C-23.5371875 51.94515625 -23.2071875 52.60515625 -22.8671875 53.28515625 C-22.76378743 62.92204318 -25.84148938 73.2080619 -28.8671875 82.28515625 C-32.8980075 80.67282825 -35.62662887 77.82281029 -38.6171875 74.78515625 C-39.12378906 74.28628906 -39.63039063 73.78742188 -40.15234375 73.2734375 C-43.8671875 69.53856764 -43.8671875 69.53856764 -43.8671875 67.28515625 C-42.7328125 66.97578125 -41.5984375 66.66640625 -40.4296875 66.34765625 C-37.07943651 65.65591094 -37.07943651 65.65591094 -35.8671875 64.28515625 C-36.31828465 59.15553724 -37.66690325 54.82780204 -39.4921875 50.03515625 C-42.89368168 40.26007024 -42.31262195 33.48724196 -37.8671875 24.16015625 C-32.1889035 13.21900033 -24.30610817 6.71942905 -12.8671875 2.28515625 C-8.59465426 0.93901564 -4.44264789 0.44184373 0 0 Z " fill="#A21112" transform="translate(113.8671875,58.71484375)"/>
<path d="M0 0 C74.25 0 148.5 0 225 0 C225 6.93 225 13.86 225 21 C224.67 21 224.34 21 224 21 C223.82984375 20.40832031 223.6596875 19.81664063 223.484375 19.20703125 C221.41011697 12.44362607 219.26082694 8.08842468 213.00076294 4.39981079 C205.27108479 0.65150792 196.93633047 1.30157145 188.55029297 1.35302734 C186.68989203 1.34624336 184.82949782 1.33733586 182.96911621 1.32647705 C177.94023698 1.30377321 172.91187329 1.31248229 167.88298559 1.32837248 C162.6096497 1.341074 157.33635652 1.32927993 152.0630188 1.32144165 C143.21136588 1.31235906 134.35992194 1.32429819 125.50830078 1.34814453 C115.28454708 1.37536987 105.06129174 1.36652571 94.83755004 1.3390125 C86.04574542 1.3163029 77.25409057 1.31312992 68.46226609 1.32620585 C63.21723203 1.33398799 57.97243206 1.3350756 52.72741318 1.31852341 C47.79743933 1.30405042 42.86810669 1.31415214 37.9382019 1.34299469 C36.13227527 1.34958965 34.3262944 1.34773509 32.52038956 1.33668137 C19.75028732 0.92344481 19.75028732 0.92344481 9 7 C3.50267751 12.56529051 1.699861 16.87155955 1.72584534 24.62686157 C1.72060866 25.39909856 1.71537198 26.17133555 1.70997661 26.96697366 C1.69496427 29.55697351 1.69427119 32.14677601 1.69360352 34.73681641 C1.68598265 36.59308201 1.67755528 38.44934445 1.66838074 40.30560303 C1.64641669 45.3513373 1.63763382 50.39701096 1.63255429 55.44278765 C1.62891179 58.59676743 1.62267215 61.75073132 1.6155529 64.90470505 C1.59104802 75.91287687 1.57800507 86.92100152 1.57446289 97.92919922 C1.57083083 108.1811502 1.54096171 118.4328012 1.49905831 128.68466055 C1.46432626 137.49162908 1.44891391 146.29849838 1.44821686 155.10553491 C1.44742479 160.36306037 1.43871878 165.62028059 1.41021919 170.87773514 C1.38399005 175.82727065 1.38186049 180.77624899 1.39787483 185.72582245 C1.39968569 187.53737735 1.39303152 189.34896462 1.37705612 191.16044998 C1.22835361 204.82240042 1.22835361 204.82240042 7 217 C9.12627135 219.28411858 9.12627135 219.28411858 11.5 220.5625 C12.2321875 221.01753906 12.964375 221.47257813 13.71875 221.94140625 C16.14445948 223.06703514 18.36560411 223.58721614 21 224 C21 224.33 21 224.66 21 225 C14.07 225 7.14 225 0 225 C0 150.75 0 76.5 0 0 Z " fill="#E3A2A2" transform="translate(0,0)"/>
<path d="M0 0 C0.33 0 0.66 0 1 0 C1.00054477 0.94937628 1.00108953 1.89875256 1.00165081 2.87689781 C1.01605786 25.99671208 1.0591227 49.11633833 1.13209057 72.23604393 C1.16671684 83.41666207 1.192093 94.59715722 1.19555664 105.77783203 C1.19859981 115.52498442 1.21913783 125.27191763 1.26052457 135.01898539 C1.2818241 140.1781652 1.29447077 145.33703365 1.28615379 150.49625778 C1.27859447 155.35717182 1.29451297 160.21745597 1.32806015 165.0782547 C1.33627074 166.8575238 1.33607022 168.6368558 1.32659721 170.41611862 C1.26006579 183.93973211 1.26006579 183.93973211 7 196 C9.12627135 198.28411858 9.12627135 198.28411858 11.5 199.5625 C12.2321875 200.01753906 12.964375 200.47257813 13.71875 200.94140625 C16.14445948 202.06703514 18.36560411 202.58721614 21 203 C21 203.33 21 203.66 21 204 C14.07 204 7.14 204 0 204 C0 136.68 0 69.36 0 0 Z " fill="#E3A2A2" transform="translate(0,21)"/>
<path d="M0 0 C0 7.92 0 15.84 0 24 C-7.92 24 -15.84 24 -24 24 C-17.23832509 16.11137927 -17.23832509 16.11137927 -13.73046875 12.59765625 C-12.61575195 11.48100586 -12.61575195 11.48100586 -11.47851562 10.34179688 C-10.72248047 9.58962891 -9.96644531 8.83746094 -9.1875 8.0625 C-8.41212891 7.28326172 -7.63675781 6.50402344 -6.83789062 5.70117188 C-5.7328418 4.59805664 -5.7328418 4.59805664 -4.60546875 3.47265625 C-3.93668701 2.80500244 -3.26790527 2.13734863 -2.57885742 1.44946289 C-1 0 -1 0 0 0 Z " fill="#C61415" transform="translate(225,201)"/>
<path d="M0 0 C6.93 0 13.86 0 21 0 C19.02 0.99 19.02 0.99 17 2 C8.52087661 6.65256075 4.02235071 11.77387678 1 21 C0.67 21 0.34 21 0 21 C0 14.07 0 7.14 0 0 Z " fill="#FDFAFA" transform="translate(0,0)"/>
<path d="M0 0 C1.74814517 2.62221776 2.83165747 4.9405341 4.0625 7.8125 C6.79861411 13.36591855 10.41308376 16.40744127 16 19 C18.67528169 19.66411298 18.67528169 19.66411298 21 20 C21 20.33 21 20.66 21 21 C14.07 21 7.14 21 0 21 C0 14.07 0 7.14 0 0 Z " fill="#FDF7F7" transform="translate(0,204)"/>
<path d="M0 0 C6.93 0 13.86 0 21 0 C21 6.93 21 13.86 21 21 C20.67 21 20.34 21 20 21 C19.82984375 20.40832031 19.6596875 19.81664063 19.484375 19.20703125 C17.69454048 13.37102827 16.2138775 8.81309208 10.625 5.66015625 C8.87687301 4.78355187 7.11537372 3.932962 5.33984375 3.11328125 C3 2 3 2 0 0 Z " fill="#FDF7F7" transform="translate(204,0)"/>
<path d="M0 0 C0.33 0 0.66 0 1 0 C1 6.93 1 13.86 1 21 C-5.93 21 -12.86 21 -20 21 C-16 19 -16 19 -14.03515625 18.140625 C-8.35725539 15.57713709 -4.46353292 12.60572022 -2.03125 6.61328125 C-1.28811367 4.42171718 -0.61004526 2.23187291 0 0 Z " fill="#FBF3F3" transform="translate(224,204)"/>
</svg>
