<?xml version="1.0" encoding="UTF-8"?>
<svg version="1.1" xmlns="http://www.w3.org/2000/svg" width="423" height="423">
<path d="M0 0 C2.3147091 -0.00435595 4.62941676 -0.00954202 6.94412231 -0.01548767 C13.18813669 -0.02879456 19.43209022 -0.02946561 25.67611599 -0.02692437 C30.90913982 -0.0258489 36.14215162 -0.03075273 41.37517285 -0.03552979 C54.43673958 -0.04722741 67.49827192 -0.04641642 80.55984083 -0.03997298 C91.85530157 -0.03480823 103.15067596 -0.04605422 114.44611964 -0.0650712 C126.09489994 -0.08452995 137.74363587 -0.09240138 149.39243245 -0.08894795 C155.91203026 -0.08714447 162.43154899 -0.08967709 168.95113373 -0.10366249 C175.08758616 -0.11633532 181.22386711 -0.1142082 187.36031723 -0.1012516 C189.59661037 -0.09890664 191.83291594 -0.1015446 194.06919479 -0.10987473 C226.98710869 -0.22353518 255.84229101 5.23163359 280.27832031 28.5871582 C303.5409403 52.62792921 307.13746302 84.07641628 307.04150391 116.07543945 C307.04558023 118.3907394 307.05092801 120.70603739 307.05743408 123.02133179 C307.07098733 129.24861393 307.06585907 135.47574521 307.05629683 141.70302963 C307.04863751 148.25726441 307.05576309 154.8114873 307.06045532 161.36572266 C307.06683835 173.06920032 307.05698946 184.77261519 307.04167731 196.47608197 C307.02827781 207.04406543 307.03060705 217.61194996 307.04443359 228.17993164 C307.06056124 240.51212291 307.06642553 252.8442513 307.0575968 265.17645168 C307.05294869 271.68256945 307.05221587 278.1886194 307.06220627 284.69473267 C307.07094954 290.81483275 307.06472119 296.93474824 307.0475235 303.05482864 C307.04359763 305.28467123 307.04462463 307.51452968 307.05131149 309.74436569 C307.13623241 340.97042451 302.4207298 369.6442359 280.65332031 393.2746582 C279.94820313 394.05067383 279.24308594 394.82668945 278.51660156 395.6262207 C260.75231963 414.29132829 234.59247191 421.77358292 209.46134186 422.46135902 C203.40991209 422.56500859 197.35875981 422.55690175 191.30664062 422.54931641 C188.99193153 422.55367236 186.67722387 422.55885842 184.36251831 422.56480408 C178.11850394 422.57811097 171.87455041 422.57878201 165.63052464 422.57624078 C160.39750081 422.57516531 155.164489 422.58006914 149.93146777 422.5848462 C136.86990105 422.59654382 123.8083687 422.59573283 110.7467998 422.58928939 C99.45133905 422.58412464 88.15596466 422.59537063 76.86052099 422.61438761 C65.21174068 422.63384635 53.56300476 422.64171779 41.91420817 422.63826436 C35.39461036 422.63646088 28.87509164 422.6389935 22.3555069 422.6529789 C16.21905447 422.66565172 10.08277351 422.66352461 3.94632339 422.65056801 C1.71003026 422.64822305 -0.52627532 422.650861 -2.76255417 422.65919113 C-35.6306768 422.77267967 -64.49920459 417.34227641 -88.90917969 394.0246582 C-112.1331504 369.94054043 -115.66151543 339.15323154 -115.62133789 307.04150391 C-115.62569303 304.72694231 -115.63087883 302.41238215 -115.63682556 300.0978241 C-115.65014199 293.84961843 -115.65080235 287.60147354 -115.64826226 281.35325646 C-115.64718732 276.11779749 -115.65208935 270.88235054 -115.65686768 265.64689416 C-115.66856927 252.57853988 -115.66775244 239.51021996 -115.66131087 226.4418635 C-115.6561473 215.13987266 -115.6673883 203.83796816 -115.68640909 192.53599439 C-115.70586805 180.88272694 -115.71402929 169.22950017 -115.71028584 157.5762164 C-115.70848222 151.05325025 -115.71101633 144.53036314 -115.72500038 138.00741005 C-115.73767354 131.86686703 -115.73554578 125.72649537 -115.72258949 119.58595467 C-115.7202445 117.34804982 -115.72288261 115.11013255 -115.73121262 112.87224197 C-115.84748804 79.17202608 -109.91929291 50.59341839 -85.90917969 25.5246582 C-62.31531725 2.74019071 -31.16314747 -0.03905794 0 0 Z " fill="#C8312B" transform="translate(116.3466796875,0.725341796875)"/>
<path d="M0 0 C1.00175262 -0.00175232 2.00350525 -0.00350464 3.03561401 -0.00531006 C6.31624129 -0.0096761 9.59681367 -0.00680691 12.87744141 -0.00341797 C15.18795787 -0.00409304 17.49847426 -0.00506476 19.80899048 -0.00631714 C24.64545367 -0.00778748 29.48189834 -0.00566289 34.31835938 -0.00097656 C40.45796392 0.00468821 46.59752442 0.0014582 52.7371273 -0.00454903 C57.51095905 -0.00820011 62.28478074 -0.00699487 67.05861282 -0.00442123 C69.31878286 -0.0037628 71.57895387 -0.00454163 73.83912277 -0.00690079 C84.91135211 -0.01591522 95.9719721 0.05873687 107.03613281 0.51269531 C107.89250525 0.54303801 108.74887768 0.5733807 109.63120079 0.60464287 C115.9738784 0.90662758 121.4310459 1.81029208 126.35400391 6.12939453 C141.37844007 23.09144297 137.15492389 56.12220632 136.00634766 77.09033203 C135.85836395 79.33298993 135.70364467 81.57521569 135.54150391 83.81689453 C135.47157227 84.84983643 135.40164063 85.88277832 135.32958984 86.94702148 C134.85488726 92.64865344 133.96267699 97.02943866 131.35400391 102.12939453 C130.98919922 102.88607422 130.62439453 103.64275391 130.24853516 104.42236328 C126.60532548 110.8012683 122.14180231 112.86679506 115.35400391 115.12939453 C96.45546328 117.69666478 77.21041519 117.44589293 58.18115234 117.39013672 C54.29191314 117.37884281 50.40295085 117.38547145 46.51372147 117.3970108 C29.82978831 117.43894618 13.19551283 117.12810659 -3.46630859 116.23876953 C-4.2306509 116.19993904 -4.99499321 116.16110855 -5.78249741 116.12110138 C-24.99113672 115.12053906 -24.99113672 115.12053906 -29.81787109 111.50048828 C-30.33865234 110.86240234 -30.85943359 110.22431641 -31.39599609 109.56689453 C-31.92708984 108.94685547 -32.45818359 108.32681641 -33.00537109 107.68798828 C-37.13526502 101.24732037 -39.29821996 94.97991466 -39.89599609 87.37939453 C-40.00766113 86.08751221 -40.00766113 86.08751221 -40.12158203 84.76953125 C-40.81935806 75.27881263 -40.8594691 65.76611836 -40.89599609 56.25439453 C-40.90135376 55.46987915 -40.90671143 54.68536377 -40.91223145 53.8770752 C-41.09743807 18.06859042 -41.09743807 18.06859042 -32.78271484 7.83642578 C-23.42562744 -0.71006648 -12.00345096 -0.02644975 0 0 Z " fill="#FDF9F9" transform="translate(222.64599609375,152.87060546875)"/>
<path d="M0 0 C2.3147091 -0.00435595 4.62941676 -0.00954202 6.94412231 -0.01548767 C13.18813669 -0.02879456 19.43209022 -0.02946561 25.67611599 -0.02692437 C30.90913982 -0.0258489 36.14215162 -0.03075273 41.37517285 -0.03552979 C54.43673958 -0.04722741 67.49827192 -0.04641642 80.55984083 -0.03997298 C91.85530157 -0.03480823 103.15067596 -0.04605422 114.44611964 -0.0650712 C126.09489994 -0.08452995 137.74363587 -0.09240138 149.39243245 -0.08894795 C155.91203026 -0.08714447 162.43154899 -0.08967709 168.95113373 -0.10366249 C175.08758616 -0.11633532 181.22386711 -0.1142082 187.36031723 -0.1012516 C189.59661037 -0.09890664 191.83291594 -0.1015446 194.06919479 -0.10987473 C226.98710869 -0.22353518 255.84229101 5.23163359 280.27832031 28.5871582 C303.5409403 52.62792921 307.13746302 84.07641628 307.04150391 116.07543945 C307.04558023 118.3907394 307.05092801 120.70603739 307.05743408 123.02133179 C307.07098733 129.24861393 307.06585907 135.47574521 307.05629683 141.70302963 C307.04863751 148.25726441 307.05576309 154.8114873 307.06045532 161.36572266 C307.06683835 173.06920032 307.05698946 184.77261519 307.04167731 196.47608197 C307.02827781 207.04406543 307.03060705 217.61194996 307.04443359 228.17993164 C307.06056124 240.51212291 307.06642553 252.8442513 307.0575968 265.17645168 C307.05294869 271.68256945 307.05221587 278.1886194 307.06220627 284.69473267 C307.07094954 290.81483275 307.06472119 296.93474824 307.0475235 303.05482864 C307.04359763 305.28467123 307.04462463 307.51452968 307.05131149 309.74436569 C307.13623241 340.97042451 302.4207298 369.6442359 280.65332031 393.2746582 C279.94820313 394.05067383 279.24308594 394.82668945 278.51660156 395.6262207 C260.75231963 414.29132829 234.59247191 421.77358292 209.46134186 422.46135902 C203.40991209 422.56500859 197.35875981 422.55690175 191.30664062 422.54931641 C188.99193153 422.55367236 186.67722387 422.55885842 184.36251831 422.56480408 C178.11850394 422.57811097 171.87455041 422.57878201 165.63052464 422.57624078 C160.39750081 422.57516531 155.164489 422.58006914 149.93146777 422.5848462 C136.86990105 422.59654382 123.8083687 422.59573283 110.7467998 422.58928939 C99.45133905 422.58412464 88.15596466 422.59537063 76.86052099 422.61438761 C65.21174068 422.63384635 53.56300476 422.64171779 41.91420817 422.63826436 C35.39461036 422.63646088 28.87509164 422.6389935 22.3555069 422.6529789 C16.21905447 422.66565172 10.08277351 422.66352461 3.94632339 422.65056801 C1.71003026 422.64822305 -0.52627532 422.650861 -2.76255417 422.65919113 C-35.6306768 422.77267967 -64.49920459 417.34227641 -88.90917969 394.0246582 C-112.1331504 369.94054043 -115.66151543 339.15323154 -115.62133789 307.04150391 C-115.62569303 304.72694231 -115.63087883 302.41238215 -115.63682556 300.0978241 C-115.65014199 293.84961843 -115.65080235 287.60147354 -115.64826226 281.35325646 C-115.64718732 276.11779749 -115.65208935 270.88235054 -115.65686768 265.64689416 C-115.66856927 252.57853988 -115.66775244 239.51021996 -115.66131087 226.4418635 C-115.6561473 215.13987266 -115.6673883 203.83796816 -115.68640909 192.53599439 C-115.70586805 180.88272694 -115.71402929 169.22950017 -115.71028584 157.5762164 C-115.70848222 151.05325025 -115.71101633 144.53036314 -115.72500038 138.00741005 C-115.73767354 131.86686703 -115.73554578 125.72649537 -115.72258949 119.58595467 C-115.7202445 117.34804982 -115.72288261 115.11013255 -115.73121262 112.87224197 C-115.84748804 79.17202608 -109.91929291 50.59341839 -85.90917969 25.5246582 C-62.31531725 2.74019071 -31.16314747 -0.03905794 0 0 Z M-90.34667969 33.2746582 C-97.04663908 41.12896611 -102.87037498 49.49668559 -106.34667969 59.2746582 C-106.87841797 60.73258789 -106.87841797 60.73258789 -107.42089844 62.2199707 C-113.47603276 80.90309891 -113.79589239 101.0786948 -113.71899414 120.53564453 C-113.72143117 122.74478323 -113.72515922 124.95392081 -113.73005676 127.16305542 C-113.73934213 133.08220336 -113.73014745 139.00118236 -113.71672463 144.92031693 C-113.70527858 151.15868495 -113.7095275 157.39704623 -113.71147156 163.63542175 C-113.7124061 174.76608418 -113.69906414 185.8966744 -113.67931017 197.02731755 C-113.66180551 207.076497 -113.65712914 217.12561203 -113.66235352 227.17480469 C-113.66908985 240.17028552 -113.66572564 253.16572279 -113.65324974 266.16119957 C-113.6486385 271.094099 -113.64771465 276.02697794 -113.64983559 280.95987892 C-113.65173583 286.77713359 -113.64348288 292.59429282 -113.62777519 298.41152573 C-113.62357694 300.53052437 -113.62265121 302.64953278 -113.62546539 304.76853371 C-113.64365073 320.9265049 -113.56405844 337.56823275 -109.03417969 353.2121582 C-108.70498535 354.38887085 -108.70498535 354.38887085 -108.36914062 355.58935547 C-104.94137343 367.50440175 -100.29570739 376.67337761 -92.34667969 386.2746582 C-91.610625 387.16411133 -90.87457031 388.05356445 -90.11621094 388.9699707 C-85.05966981 394.82302892 -79.59136591 399.71910842 -73.34667969 404.2746582 C-72.4146875 404.96495117 -72.4146875 404.96495117 -71.46386719 405.66918945 C-49.72522803 420.49098888 -21.45178491 420.59206467 3.79589844 420.51757812 C5.94518593 420.51865413 8.09447313 420.52059752 10.24375916 420.52333069 C16.0226804 420.52813133 21.80152305 420.52058337 27.5804348 420.51037765 C33.66401436 420.50151477 39.74759205 420.50335619 45.83117676 420.5037384 C56.04224949 420.50280525 66.2532923 420.49416911 76.46435547 420.48046875 C88.22445633 420.46474706 99.98452449 420.4594709 111.74463511 420.4602043 C124.33081689 420.46088289 136.91698628 420.45392493 149.50316429 420.4447577 C153.10107344 420.44263932 156.69898055 420.4419183 160.29689026 420.44151878 C165.97698193 420.44050466 171.65704681 420.43432212 177.33712959 420.42435265 C179.40613706 420.42146405 181.47514762 420.42019475 183.54415703 420.42078018 C193.4256963 420.42251622 203.28310154 420.33007828 213.15344238 419.82685852 C213.92324794 419.78801896 214.6930535 419.7491794 215.4861865 419.70916289 C221.44177666 419.36887313 227.12193174 418.52830294 232.90332031 417.0871582 C233.82097168 416.86576172 234.73862305 416.64436523 235.68408203 416.41625977 C249.09521429 413.04997871 259.95702055 408.31144743 270.65332031 399.2746582 C271.51570313 398.57469727 272.37808594 397.87473633 273.26660156 397.15356445 C294.32789776 379.30223253 301.83854995 354.56421225 304.44215453 327.95153892 C304.76763216 323.82556374 304.79464933 319.71909701 304.78703308 315.58216858 C304.78929864 314.6600637 304.79156419 313.73795881 304.7938984 312.78791136 C304.80018207 309.72627028 304.79941268 306.66467412 304.79858398 303.60302734 C304.80157909 301.39595483 304.80498243 299.18888284 304.8087616 296.98181152 C304.81757244 291.00404306 304.81993855 285.02628893 304.82057738 279.0485146 C304.82128982 275.30580895 304.82342788 271.5631069 304.8260746 267.82040215 C304.83484364 255.41411087 304.8394955 243.00782653 304.83874413 230.60153253 C304.83870417 229.93413031 304.83866421 229.26672809 304.83862305 228.57910156 C304.83858217 227.91087092 304.83854129 227.24264028 304.83849917 226.55416023 C304.83809348 215.74588467 304.8476456 204.93764408 304.86176141 194.12937862 C304.87618672 182.99495661 304.88284579 171.86054896 304.88216764 160.72611707 C304.88191391 154.48984583 304.88469525 148.25361413 304.89534569 142.01735115 C304.9051046 136.14284216 304.90505302 130.26840988 304.89782906 124.39389801 C304.89679265 122.25233026 304.89908907 120.11075754 304.90518951 117.96919823 C304.98426683 88.25548794 302.6172938 59.50640211 283.65332031 35.2746582 C282.99332031 35.2746582 282.33332031 35.2746582 281.65332031 35.2746582 C281.42644531 34.71391602 281.19957031 34.15317383 280.96582031 33.57543945 C273.10323932 19.79252217 255.17406361 11.66163233 240.65332031 7.2746582 C227.93445745 3.99504065 215.13374838 2.12086536 202.00083923 2.13421631 C201.07086595 2.13124519 200.14089266 2.12827406 199.18273836 2.12521291 C196.08820623 2.11659007 192.99371308 2.11502308 189.89916992 2.11352539 C187.67080097 2.1088924 185.44243281 2.10386709 183.21406555 2.09848022 C177.17185772 2.08539415 171.12966099 2.07891781 165.08744121 2.07446957 C161.30232201 2.07153061 157.51720578 2.06742411 153.73208809 2.06296539 C143.21899418 2.05086002 132.70590204 2.04047871 122.19280148 2.0370903 C121.18525596 2.03676095 121.18525596 2.03676095 120.157356 2.03642495 C119.14759483 2.03609753 119.14759483 2.03609753 118.11743444 2.0357635 C116.75366398 2.03532006 115.38989351 2.0348735 114.02612305 2.03442383 C113.34966661 2.0342024 112.67321018 2.03398097 111.97625507 2.03375283 C101.05164701 2.02981735 90.12710617 2.01240036 79.202524 1.98906431 C67.94267859 1.96520982 56.68286546 1.95313865 45.42299086 1.95172238 C39.11889328 1.95068117 32.81489044 1.94492144 26.51081657 1.92690277 C20.56569351 1.91024098 14.62073454 1.90835299 8.67559624 1.91704178 C6.51355037 1.91780278 4.35149501 1.91359614 2.1894722 1.90358353 C-33.36674057 1.74880264 -65.00778719 6.0215283 -90.34667969 33.2746582 Z " fill="#85201E" transform="translate(116.3466796875,0.725341796875)"/>
<path d="M0 0 C3.63 0 7.26 0 11 0 C11.33 7.59 11.66 15.18 12 23 C12.99 22.01 13.98 21.02 15 20 C17.99269271 19.06408299 20.87311657 18.80799839 24 19 C27.53724365 21.06339213 28.70419522 22.11258565 30 26 C30.11018654 27.42533494 30.1685845 28.85504252 30.19287109 30.28442383 C30.21696548 31.57640434 30.21696548 31.57640434 30.24154663 32.89448547 C30.28614982 36.82816644 30.3270543 40.76168182 30.35009766 44.69555664 C30.36665722 46.768262 30.39394717 48.84091026 30.43212891 50.91333008 C30.4869778 53.90736402 30.50878311 56.90006216 30.5234375 59.89453125 C30.54610687 60.81659866 30.56877625 61.73866608 30.59213257 62.68867493 C30.57774335 67.0850377 30.4173685 70.07763601 27.61206055 73.58837891 C25 76 25 76 22.68359375 76.69140625 C15.12169312 76.25741891 15.12169312 76.25741891 12 73 C11.67 73.99 11.34 74.98 11 76 C7.37 76 3.74 76 0 76 C0 50.92 0 25.84 0 0 Z " fill="#CA3A34" transform="translate(274,171)"/>
<path d="M0 0 C4.60669463 2.4569038 7.76568496 5.55480742 10.12890625 10.28125 C10.26420933 12.81375047 10.34155011 15.31742798 10.3671875 17.8515625 C10.37525925 18.60662079 10.38333099 19.36167908 10.39164734 20.13961792 C10.40549091 21.74181828 10.41621185 23.34404817 10.42407227 24.94628906 C10.44119476 27.37623694 10.48506422 29.80479148 10.52929688 32.234375 C10.67651592 46.84501555 10.67651592 46.84501555 6.12890625 53.28125 C1.28531377 57.77887159 -1.86366877 58.65330573 -8.33203125 58.55078125 C-12.18097333 58.14220125 -14.08251683 56.93703755 -16.87109375 54.28125 C-20.38892506 48.91525471 -21.47287344 44.17159185 -21.40234375 37.8359375 C-21.40617065 37.0624295 -21.40999756 36.28892151 -21.41394043 35.49197388 C-21.41664266 33.87012415 -21.40940074 32.24822957 -21.39257812 30.62646484 C-21.3710823 28.15493324 -21.39246466 25.68628819 -21.41796875 23.21484375 C-21.41532631 21.63020198 -21.41020307 20.04556199 -21.40234375 18.4609375 C-21.41044067 17.72954559 -21.4185376 16.99815369 -21.42687988 16.24459839 C-21.33387475 11.12196207 -20.06889711 8.24033024 -16.87109375 4.28125 C-11.92861821 -0.1790328 -6.65775939 -2.55746916 0 0 Z " fill="#FCF5F5" transform="translate(123.87109375,189.71875)"/>
<path d="M0 0 C4.60776793 1.80303963 7.08972958 5.11963944 10 9 C10.94137255 11.82411765 11.11725382 13.52918032 11.09765625 16.44921875 C11.09515869 17.21322998 11.09266113 17.97724121 11.09008789 18.7644043 C11.08098389 19.72902588 11.07187988 20.69364746 11.0625 21.6875 C11.041875 24.760625 11.02125 27.83375 11 31 C4.07 31 -2.86 31 -10 31 C-9.855625 33.248125 -9.71125 35.49625 -9.5625 37.8125 C-9.48128906 39.07707031 -9.40007812 40.34164062 -9.31640625 41.64453125 C-9.12815453 44.99181893 -9.12815453 44.99181893 -8 48 C-4.20452079 47.03223902 -4.20452079 47.03223902 -1 45 C-0.63239269 42.67182036 -0.29758419 40.3381615 0 38 C3.3 38 6.6 38 10 38 C10.43943644 44.41577202 10.6646866 48.578258 6.40625 53.59375 C2.8527372 57.1472628 0.09739878 58.20662095 -4.875 58.5 C-9.26033993 58.34990652 -11.93918182 57.38206784 -15.4296875 54.77734375 C-20.0961975 49.49559735 -21.610671 44.84152128 -21.53125 37.87109375 C-21.5350769 37.11836685 -21.53890381 36.36563995 -21.54284668 35.59010315 C-21.54555202 34.00935517 -21.53828789 32.42856137 -21.52148438 30.84790039 C-21.50002136 28.43989696 -21.52134509 26.03486597 -21.546875 23.62695312 C-21.54423206 22.08332681 -21.53910778 20.53970233 -21.53125 18.99609375 C-21.53934692 18.28343857 -21.54744385 17.57078339 -21.55578613 16.83653259 C-21.43382445 10.28143334 -18.65551303 6.85740486 -14.4375 2.125 C-10.1994711 -1.22650245 -5.11108609 -0.70443759 0 0 Z " fill="#CB3C36" transform="translate(333,190)"/>
<path d="M0 0 C3.96 0 7.92 0 12 0 C12 15.84 12 31.68 12 48 C13.32 48 14.64 48 16 48 C16 47.34 16 46.68 16 46 C16.99 45.34 17.98 44.68 19 44 C19.47426626 42.03009759 19.47426626 42.03009759 19.43237305 39.73388672 C19.45216721 38.85312469 19.47196136 37.97236267 19.49235535 37.06491089 C19.49874527 36.11278717 19.50513519 35.16066345 19.51171875 34.1796875 C19.52966995 33.20589142 19.54762115 32.23209534 19.56611633 31.22879028 C19.62040632 28.11090458 19.65417491 24.99317355 19.6875 21.875 C19.72065657 19.7643013 19.75514466 17.65362306 19.79101562 15.54296875 C19.87614352 10.36209048 19.94286536 5.18125956 20 0 C23.63 0 27.26 0 31 0 C31.02255577 7.41460363 31.04091784 14.82918865 31.05181217 22.24381924 C31.05703982 25.68640348 31.06413531 29.12896312 31.07543945 32.5715332 C31.08834235 36.52555043 31.09322918 40.47955756 31.09765625 44.43359375 C31.10281754 45.67523788 31.10797882 46.91688202 31.11329651 48.19615173 C31.11340981 49.90781273 31.11340981 49.90781273 31.11352539 51.65405273 C31.115746 52.664431 31.11796661 53.67480927 31.12025452 54.71580505 C31 57 31 57 30 58 C28.31391034 58.07205511 26.62499341 58.08386068 24.9375 58.0625 C24.01839844 58.05347656 23.09929687 58.04445312 22.15234375 58.03515625 C21.44207031 58.02355469 20.73179687 58.01195312 20 58 C20 56.35 20 54.7 20 53 C19.27296875 53.54140625 19.27296875 53.54140625 18.53125 54.09375 C15.04200335 56.5093823 12.0545231 58.38812527 7.75 58.6875 C4 58 4 58 1.79003906 55.70458984 C-1.11883821 50.91365378 -0.49175997 45.45935409 -0.390625 40.0390625 C-0.38496521 38.89335785 -0.37930542 37.7476532 -0.37347412 36.56723022 C-0.35114072 32.91938945 -0.30094736 29.27254232 -0.25 25.625 C-0.22993119 23.14714963 -0.21168109 20.66928382 -0.1953125 18.19140625 C-0.15128544 12.12722317 -0.08227652 6.06377988 0 0 Z " fill="#FAEEEE" transform="translate(141,190)"/>
<path d="M0 0 C3.96 0 7.92 0 12 0 C15.79994407 8.73987137 18.52160101 17.35038137 18 27 C18.99 27 19.98 27 21 27 C21.16435547 25.80117187 21.16435547 25.80117187 21.33203125 24.578125 C24.01980198 5.96039604 24.01980198 5.96039604 27 0 C30.96 0 34.92 0 39 0 C37.44758004 6.29099708 35.811248 12.55608755 34.125 18.8125 C33.88136719 19.73353516 33.63773438 20.65457031 33.38671875 21.60351562 C32.12964333 26.25730002 30.73970697 30.63197862 28.84765625 35.06640625 C25.95306806 42.82332202 26.35828045 50.95443751 26.3125 59.125 C26.28341403 61.53745259 26.24898559 63.94971759 26.21000671 66.36203003 C26.18754799 67.85211594 26.17171109 69.34231942 26.16316223 70.83255005 C26.10967217 75.89032783 26.10967217 75.89032783 25 77 C23.14712498 77.07226502 21.29166122 77.0838122 19.4375 77.0625 C17.91962891 77.04896484 17.91962891 77.04896484 16.37109375 77.03515625 C15.58863281 77.02355469 14.80617188 77.01195312 14 77 C14.00112793 76.02877197 14.00225586 75.05754395 14.00341797 74.05688477 C14.49667786 50.81456141 14.49667786 50.81456141 8.625 28.65234375 C6.77216489 24.48791869 5.49176985 20.3140278 4.25 15.9375 C4.05180664 15.25800293 3.85361328 14.57850586 3.64941406 13.87841797 C2.31961513 9.27867755 1.14049791 4.65012102 0 0 Z " fill="#FDF7F7" transform="translate(64,171)"/>
<path d="M0 0 C3.63 0 7.26 0 11 0 C11.33 15.18 11.66 30.36 12 46 C16.86132495 45.50847518 16.86132495 45.50847518 19 43 C19.3293538 41.0631387 19.3293538 41.0631387 19.31884766 38.82568359 C19.33871735 37.96494232 19.35858704 37.10420105 19.37905884 36.21737671 C19.39061005 35.28712677 19.40216125 34.35687683 19.4140625 33.3984375 C19.43342865 32.44683746 19.4527948 31.49523743 19.4727478 30.51480103 C19.53264132 27.46829253 19.57896795 24.42174646 19.625 21.375 C19.66317079 19.3124833 19.70222198 17.2499827 19.7421875 15.1875 C19.83835086 10.12513034 19.92234563 5.06268605 20 0 C23.3 0 26.6 0 30 0 C30 18.48 30 36.96 30 56 C26.7 56 23.4 56 20 56 C20 54.35 20 52.7 20 51 C19.27296875 51.54140625 19.27296875 51.54140625 18.53125 52.09375 C13.45420542 55.60862702 10.18397855 57.03066309 4 56 C1.32562186 53.80808535 0.1448824 52.02429899 -0.34289551 48.57577515 C-0.46419755 45.49425733 -0.44903867 42.43884159 -0.390625 39.35546875 C-0.38496521 38.2305452 -0.37930542 37.10562164 -0.37347412 35.9466095 C-0.35111468 32.35980366 -0.30091667 28.77400304 -0.25 25.1875 C-0.22993455 22.75326965 -0.21168386 20.31902362 -0.1953125 17.88476562 C-0.1512509 11.92279079 -0.08222413 5.96156573 0 0 Z " fill="#CA3B35" transform="translate(235,191)"/>
<path d="M0 0 C11.55 0 23.1 0 35 0 C35 3.3 35 6.6 35 10 C31.04 10 27.08 10 23 10 C23 31.45 23 52.9 23 75 C19.37 75 15.74 75 12 75 C12 53.55 12 32.1 12 10 C8.04 10 4.08 10 0 10 C0 6.7 0 3.4 0 0 Z " fill="#C8332D" transform="translate(198,172)"/>
<path d="M0 0 C0.99 0.495 0.99 0.495 2 1 C1.49484344 16.71036895 -1.67186039 31.58046206 -8 46 C-8.51626953 47.2684375 -8.51626953 47.2684375 -9.04296875 48.5625 C-12.55888386 56.48282863 -18.21828206 62.65958018 -24 69 C-25.05960938 70.16789062 -25.05960938 70.16789062 -26.140625 71.359375 C-42.88602024 88.92161879 -66.44076398 95.97911745 -90 98 C-91.66645785 98.02638192 -93.33377355 98.03830406 -95 98 C-95 97.34 -95 96.68 -95 96 C-97.31 96 -99.62 96 -102 96 C-102 95.67 -102 95.34 -102 95 C-100.88367188 94.98582031 -99.76734375 94.97164063 -98.6171875 94.95703125 C-75.24089112 94.36224675 -52.180068 89.3298031 -34 74 C-33.14921875 73.32324219 -32.2984375 72.64648438 -31.421875 71.94921875 C-11.10344265 54.98524457 -3.81423443 31.02392531 -1.4609375 5.4375 C-1.39438965 4.61121094 -1.3278418 3.78492188 -1.25927734 2.93359375 C-1 1 -1 1 0 0 Z " fill="#94231E" transform="translate(421,325)"/>
<path d="M0 0 C0.33 0 0.66 0 1 0 C1.06469482 0.71841064 1.12938965 1.43682129 1.19604492 2.17700195 C2.5892086 17.17174818 4.28311755 31.65491626 9 46 C9.36867188 47.1240625 9.73734375 48.248125 10.1171875 49.40625 C13.06474649 57.29351131 17.66482456 63.54347405 23 70 C23.71285156 70.87785156 24.42570312 71.75570312 25.16015625 72.66015625 C41.00452493 91.2650683 63.24608607 99.87084756 87.0625 102.125 C88.3609082 102.25455078 88.3609082 102.25455078 89.68554688 102.38671875 C91.78988844 102.59599029 93.89488124 102.79869668 96 103 C96.33 103.99 96.66 104.98 97 106 C68.49141551 104.82730645 43.34611654 96.32189864 23.22265625 75.453125 C7.65947673 58.27618873 -1.86482357 33.33328347 -0.89453125 9.9453125 C-0.66359725 6.61852415 -0.37775534 3.31301647 0 0 Z " fill="#93231F" transform="translate(2,317)"/>
<path d="M0 0 C2.61580479 0.3269756 4.64078137 0.82039068 7 2 C7.04937279 6.66307014 7.08570627 11.32598873 7.10986328 15.98925781 C7.11993188 17.57619883 7.13358767 19.16312125 7.15087891 20.75 C7.17509001 23.02869247 7.18647422 25.30714006 7.1953125 27.5859375 C7.20563507 28.29744965 7.21595764 29.00896179 7.22659302 29.74203491 C7.22699422 31.49631665 7.12202209 33.24996709 7 35 C5 37 5 37 2.5 37.25 C0 37 0 37 -2 35 C-2.19948557 32.51433457 -2.27989743 30.1424925 -2.265625 27.65625 C-2.26753845 26.93135376 -2.2694519 26.20645752 -2.27142334 25.45959473 C-2.27278487 23.92634738 -2.26909064 22.3930885 -2.26074219 20.85986328 C-2.25004178 18.50917741 -2.26063808 16.15925577 -2.2734375 13.80859375 C-2.2721159 12.32031081 -2.26955349 10.83202834 -2.265625 9.34375 C-2.26967346 8.63851196 -2.27372192 7.93327393 -2.27789307 7.20666504 C-2.22992486 2.22992486 -2.22992486 2.22992486 0 0 Z " fill="#CA3B35" transform="translate(116,200)"/>
<path d="M0 0 C26.64726092 2.78963513 48.68202978 13.79562121 66.09375 34.48828125 C79.02263409 51.27096732 86.87114167 74.74414329 86 96 C84.515 96.495 84.515 96.495 83 97 C82.90203125 95.82566406 82.8040625 94.65132813 82.703125 93.44140625 C80.98588108 74.39434227 77.42835861 57.30667457 67 41 C66.319375 39.906875 65.63875 38.81375 64.9375 37.6875 C62.8254856 34.75793164 60.64257342 32.47023168 58 30 C57.27683594 29.31808594 56.55367188 28.63617187 55.80859375 27.93359375 C39.19862472 12.57132192 22.02354532 6.701243 0 3 C0 2.01 0 1.02 0 0 Z " fill="#93231E" transform="translate(337,2)"/>
<path d="M0 0 C1.99384779 1.99384779 1.16393954 5.95305012 1.16796875 8.68359375 C1.17129715 9.45429703 1.17462555 10.22500031 1.17805481 11.01905823 C1.1831271 12.65242921 1.18546304 14.2858106 1.18530273 15.91918945 C1.1874878 18.42351299 1.20563595 20.92739521 1.22460938 23.43164062 C1.22754347 25.01562349 1.22952816 26.59960845 1.23046875 28.18359375 C1.23765427 28.9357164 1.24483978 29.68783905 1.25224304 30.4627533 C1.22882279 35.77117721 1.22882279 35.77117721 -1 38 C-5.55555556 37.44444444 -5.55555556 37.44444444 -7 36 C-7.08851529 33.40640678 -7.11525945 30.83960309 -7.09765625 28.24609375 C-7.09553383 27.08292381 -7.09553383 27.08292381 -7.09336853 25.89625549 C-7.08775345 23.40996506 -7.07519846 20.9237634 -7.0625 18.4375 C-7.05748694 16.75586067 -7.0529237 15.07421994 -7.04882812 13.39257812 C-7.03777913 9.26168434 -7.02050445 5.13085724 -7 1 C-4.51588385 -0.24205807 -2.74800896 -0.14092354 0 0 Z " fill="#FBF2F2" transform="translate(292,200)"/>
<path d="M0 0 C2.4375 0.8125 2.4375 0.8125 4.4375 2.8125 C4.71200545 6.16146654 4.52378804 9.44726663 4.4375 12.8125 C1.1375 12.8125 -2.1625 12.8125 -5.5625 12.8125 C-5.93252709 3.31513796 -5.93252709 3.31513796 -4.2109375 0.9765625 C-2.5625 -0.1875 -2.5625 -0.1875 0 0 Z " fill="#FAEDEC" transform="translate(328.5625,199.1875)"/>
<path d="M0 0 C1.99097846 2.98646769 2.94124926 5.59687262 4 9 C4.66 8.01 5.32 7.02 6 6 C5.67 8.31 5.34 10.62 5 13 C4.01 13 3.02 13 2 13 C1.66127487 11.58461283 1.32925376 10.16762037 1 8.75 C0.814375 7.96109375 0.62875 7.1721875 0.4375 6.359375 C0 4 0 4 0 0 Z " fill="#E1918D" transform="translate(80,185)"/>
<path d="M0 0 C4.62 0 9.24 0 14 0 C13.01 0.495 13.01 0.495 12 1 C12 1.66 12 2.32 12 3 C10.35 3 8.7 3 7 3 C7 2.34 7 1.68 7 1 C4.69 1 2.38 1 0 1 C0 0.67 0 0.34 0 0 Z " fill="#9F2320" transform="translate(319,420)"/>
</svg>
